# xmcd CD database file generated by Grip 3.3.0
# 
# Track frame offsets:
#       182
#       29097
#       52165
#       91127
#       104265
#       132350
#       176505
# 
# Disc length: 2761 seconds
# 
# Revision: 3
# Processed by: cddbd v1.5.1PL2 Copyright (c) Steve Scherf et al.
# Submitted via: Grip 3.3.0
# 
DISCID=5d0ac707
DTITLE=Rory Gallagher - Live! In Europe
DYEAR=1972
DGENRE=Rock
TTITLE0=Messin' With The Kid
TTITLE1=Laundromat
TTITLE2=I Could've Had Religion
TTITLE3=Pistol Slapper Blues
TTITLE4=Going To My Home Town
TTITLE5=In Your Town
TTITLE6=Bullfrog Blues
EXTD=\nYEAR: 1972  ID3G:   0
EXTT0=
EXTT1=
EXTT2=
EXTT3=
EXTT4=
EXTT5=
EXTT6=
PLAYORDER=
